<mxfile host="app.diagrams.net" agent="Mozilla/5.0 (Windows NT 10.0; Win64; x64) AppleWebKit/537.36 (KHTML, like Gecko) Chrome/127.0.0.0 Safari/537.36" version="24.7.7">
  <diagram id="C5RBs43oDa-KdzZeNtuy" name="Page-1">
    <mxGraphModel dx="1663" dy="469" grid="1" gridSize="10" guides="1" tooltips="1" connect="1" arrows="1" fold="1" page="1" pageScale="1" pageWidth="827" pageHeight="1169" math="0" shadow="0">
      <root>
        <mxCell id="WIyWlLk6GJQsqaUBKTNV-0" />
        <mxCell id="WIyWlLk6GJQsqaUBKTNV-1" parent="WIyWlLk6GJQsqaUBKTNV-0" />
        <mxCell id="WIyWlLk6GJQsqaUBKTNV-2" value="" style="rounded=0;html=1;jettySize=auto;orthogonalLoop=1;fontSize=11;endArrow=block;endFill=0;endSize=8;strokeWidth=1;shadow=0;labelBackgroundColor=none;edgeStyle=orthogonalEdgeStyle;" parent="WIyWlLk6GJQsqaUBKTNV-1" edge="1">
          <mxGeometry relative="1" as="geometry">
            <mxPoint x="220" y="120" as="sourcePoint" />
            <mxPoint x="220" y="170" as="targetPoint" />
          </mxGeometry>
        </mxCell>
        <mxCell id="jSNVmiuDcOuy4MH1T7Fy-33" style="edgeStyle=orthogonalEdgeStyle;rounded=0;orthogonalLoop=1;jettySize=auto;html=1;entryX=0.5;entryY=0;entryDx=0;entryDy=0;" edge="1" parent="WIyWlLk6GJQsqaUBKTNV-1" source="jSNVmiuDcOuy4MH1T7Fy-1" target="jSNVmiuDcOuy4MH1T7Fy-2">
          <mxGeometry relative="1" as="geometry" />
        </mxCell>
        <mxCell id="jSNVmiuDcOuy4MH1T7Fy-1" value="Authentication" style="rounded=0;whiteSpace=wrap;html=1;" vertex="1" parent="WIyWlLk6GJQsqaUBKTNV-1">
          <mxGeometry x="160" y="170" width="120" height="40" as="geometry" />
        </mxCell>
        <mxCell id="jSNVmiuDcOuy4MH1T7Fy-2" value="Reroutes Google /Email" style="rounded=0;whiteSpace=wrap;html=1;" vertex="1" parent="WIyWlLk6GJQsqaUBKTNV-1">
          <mxGeometry x="160" y="250" width="120" height="40" as="geometry" />
        </mxCell>
        <mxCell id="jSNVmiuDcOuy4MH1T7Fy-37" style="edgeStyle=orthogonalEdgeStyle;rounded=0;orthogonalLoop=1;jettySize=auto;html=1;exitX=0.5;exitY=1;exitDx=0;exitDy=0;entryX=0.5;entryY=0;entryDx=0;entryDy=0;" edge="1" parent="WIyWlLk6GJQsqaUBKTNV-1" source="jSNVmiuDcOuy4MH1T7Fy-10" target="jSNVmiuDcOuy4MH1T7Fy-11">
          <mxGeometry relative="1" as="geometry" />
        </mxCell>
        <mxCell id="jSNVmiuDcOuy4MH1T7Fy-10" value="Create Server(Admin Privileges)" style="rounded=0;whiteSpace=wrap;html=1;" vertex="1" parent="WIyWlLk6GJQsqaUBKTNV-1">
          <mxGeometry x="160" y="420" width="120" height="60" as="geometry" />
        </mxCell>
        <mxCell id="jSNVmiuDcOuy4MH1T7Fy-26" style="edgeStyle=orthogonalEdgeStyle;rounded=0;orthogonalLoop=1;jettySize=auto;html=1;" edge="1" parent="WIyWlLk6GJQsqaUBKTNV-1" source="jSNVmiuDcOuy4MH1T7Fy-11" target="jSNVmiuDcOuy4MH1T7Fy-13">
          <mxGeometry relative="1" as="geometry" />
        </mxCell>
        <mxCell id="jSNVmiuDcOuy4MH1T7Fy-11" value="Edit details" style="rounded=0;whiteSpace=wrap;html=1;" vertex="1" parent="WIyWlLk6GJQsqaUBKTNV-1">
          <mxGeometry x="160" y="520" width="120" height="50" as="geometry" />
        </mxCell>
        <mxCell id="jSNVmiuDcOuy4MH1T7Fy-12" value="Deployment of server" style="rounded=0;whiteSpace=wrap;html=1;" vertex="1" parent="WIyWlLk6GJQsqaUBKTNV-1">
          <mxGeometry x="160" y="70" width="120" height="50" as="geometry" />
        </mxCell>
        <mxCell id="jSNVmiuDcOuy4MH1T7Fy-39" value="" style="edgeStyle=orthogonalEdgeStyle;rounded=0;orthogonalLoop=1;jettySize=auto;html=1;" edge="1" parent="WIyWlLk6GJQsqaUBKTNV-1" source="jSNVmiuDcOuy4MH1T7Fy-13" target="jSNVmiuDcOuy4MH1T7Fy-15">
          <mxGeometry relative="1" as="geometry" />
        </mxCell>
        <mxCell id="jSNVmiuDcOuy4MH1T7Fy-13" value="Invite link( To share)" style="rounded=0;whiteSpace=wrap;html=1;" vertex="1" parent="WIyWlLk6GJQsqaUBKTNV-1">
          <mxGeometry x="85" y="600" width="120" height="35.5" as="geometry" />
        </mxCell>
        <mxCell id="jSNVmiuDcOuy4MH1T7Fy-14" value="Messaging services" style="rounded=0;whiteSpace=wrap;html=1;" vertex="1" parent="WIyWlLk6GJQsqaUBKTNV-1">
          <mxGeometry x="280" y="677.5" width="120" height="50" as="geometry" />
        </mxCell>
        <mxCell id="jSNVmiuDcOuy4MH1T7Fy-23" value="" style="edgeStyle=orthogonalEdgeStyle;rounded=0;orthogonalLoop=1;jettySize=auto;html=1;" edge="1" parent="WIyWlLk6GJQsqaUBKTNV-1" source="jSNVmiuDcOuy4MH1T7Fy-15" target="jSNVmiuDcOuy4MH1T7Fy-14">
          <mxGeometry relative="1" as="geometry" />
        </mxCell>
        <mxCell id="jSNVmiuDcOuy4MH1T7Fy-28" style="edgeStyle=orthogonalEdgeStyle;rounded=0;orthogonalLoop=1;jettySize=auto;html=1;exitX=0.5;exitY=1;exitDx=0;exitDy=0;entryX=0.5;entryY=0;entryDx=0;entryDy=0;" edge="1" parent="WIyWlLk6GJQsqaUBKTNV-1" source="jSNVmiuDcOuy4MH1T7Fy-15" target="jSNVmiuDcOuy4MH1T7Fy-21">
          <mxGeometry relative="1" as="geometry" />
        </mxCell>
        <mxCell id="jSNVmiuDcOuy4MH1T7Fy-15" value="Features" style="rhombus;whiteSpace=wrap;html=1;" vertex="1" parent="WIyWlLk6GJQsqaUBKTNV-1">
          <mxGeometry x="110" y="675" width="80" height="55" as="geometry" />
        </mxCell>
        <mxCell id="jSNVmiuDcOuy4MH1T7Fy-16" value="" style="endArrow=classic;html=1;rounded=0;" edge="1" parent="WIyWlLk6GJQsqaUBKTNV-1">
          <mxGeometry width="50" height="50" relative="1" as="geometry">
            <mxPoint x="200" y="702" as="sourcePoint" />
            <mxPoint x="280" y="702" as="targetPoint" />
            <Array as="points">
              <mxPoint x="250" y="702.25" />
            </Array>
          </mxGeometry>
        </mxCell>
        <mxCell id="jSNVmiuDcOuy4MH1T7Fy-27" style="edgeStyle=orthogonalEdgeStyle;rounded=0;orthogonalLoop=1;jettySize=auto;html=1;entryX=0;entryY=0.5;entryDx=0;entryDy=0;" edge="1" parent="WIyWlLk6GJQsqaUBKTNV-1" source="jSNVmiuDcOuy4MH1T7Fy-18" target="jSNVmiuDcOuy4MH1T7Fy-15">
          <mxGeometry relative="1" as="geometry" />
        </mxCell>
        <mxCell id="jSNVmiuDcOuy4MH1T7Fy-18" value="Upload or download documents in mp4 and jpeg format" style="rounded=0;whiteSpace=wrap;html=1;" vertex="1" parent="WIyWlLk6GJQsqaUBKTNV-1">
          <mxGeometry x="-80" y="682.5" width="120" height="40" as="geometry" />
        </mxCell>
        <mxCell id="jSNVmiuDcOuy4MH1T7Fy-36" value="" style="edgeStyle=orthogonalEdgeStyle;rounded=0;orthogonalLoop=1;jettySize=auto;html=1;" edge="1" parent="WIyWlLk6GJQsqaUBKTNV-1" source="jSNVmiuDcOuy4MH1T7Fy-20" target="jSNVmiuDcOuy4MH1T7Fy-10">
          <mxGeometry relative="1" as="geometry" />
        </mxCell>
        <mxCell id="jSNVmiuDcOuy4MH1T7Fy-20" value="Add light mode and dark mode" style="rounded=0;whiteSpace=wrap;html=1;" vertex="1" parent="WIyWlLk6GJQsqaUBKTNV-1">
          <mxGeometry x="170" y="340" width="120" height="40" as="geometry" />
        </mxCell>
        <mxCell id="jSNVmiuDcOuy4MH1T7Fy-30" style="edgeStyle=orthogonalEdgeStyle;rounded=0;orthogonalLoop=1;jettySize=auto;html=1;" edge="1" parent="WIyWlLk6GJQsqaUBKTNV-1" source="jSNVmiuDcOuy4MH1T7Fy-21">
          <mxGeometry relative="1" as="geometry">
            <mxPoint x="40" y="810" as="targetPoint" />
          </mxGeometry>
        </mxCell>
        <mxCell id="jSNVmiuDcOuy4MH1T7Fy-38" value="" style="edgeStyle=orthogonalEdgeStyle;rounded=0;orthogonalLoop=1;jettySize=auto;html=1;" edge="1" parent="WIyWlLk6GJQsqaUBKTNV-1" source="jSNVmiuDcOuy4MH1T7Fy-21" target="jSNVmiuDcOuy4MH1T7Fy-32">
          <mxGeometry relative="1" as="geometry" />
        </mxCell>
        <mxCell id="jSNVmiuDcOuy4MH1T7Fy-41" value="" style="edgeStyle=orthogonalEdgeStyle;rounded=0;orthogonalLoop=1;jettySize=auto;html=1;" edge="1" parent="WIyWlLk6GJQsqaUBKTNV-1" source="jSNVmiuDcOuy4MH1T7Fy-21" target="jSNVmiuDcOuy4MH1T7Fy-40">
          <mxGeometry relative="1" as="geometry" />
        </mxCell>
        <mxCell id="jSNVmiuDcOuy4MH1T7Fy-21" value="Join or add channel&amp;nbsp;" style="rhombus;whiteSpace=wrap;html=1;" vertex="1" parent="WIyWlLk6GJQsqaUBKTNV-1">
          <mxGeometry x="95" y="770" width="110" height="80" as="geometry" />
        </mxCell>
        <mxCell id="jSNVmiuDcOuy4MH1T7Fy-29" style="edgeStyle=orthogonalEdgeStyle;rounded=0;orthogonalLoop=1;jettySize=auto;html=1;entryX=0;entryY=0.5;entryDx=0;entryDy=0;" edge="1" parent="WIyWlLk6GJQsqaUBKTNV-1" source="jSNVmiuDcOuy4MH1T7Fy-22" target="jSNVmiuDcOuy4MH1T7Fy-21">
          <mxGeometry relative="1" as="geometry" />
        </mxCell>
        <mxCell id="jSNVmiuDcOuy4MH1T7Fy-22" value="Video call" style="rounded=0;whiteSpace=wrap;html=1;" vertex="1" parent="WIyWlLk6GJQsqaUBKTNV-1">
          <mxGeometry x="-80" y="790" width="120" height="40" as="geometry" />
        </mxCell>
        <mxCell id="jSNVmiuDcOuy4MH1T7Fy-32" value="Audio call" style="rounded=0;whiteSpace=wrap;html=1;" vertex="1" parent="WIyWlLk6GJQsqaUBKTNV-1">
          <mxGeometry x="290" y="795" width="120" height="30" as="geometry" />
        </mxCell>
        <mxCell id="jSNVmiuDcOuy4MH1T7Fy-35" style="edgeStyle=orthogonalEdgeStyle;rounded=0;orthogonalLoop=1;jettySize=auto;html=1;entryX=0.41;entryY=0.05;entryDx=0;entryDy=0;entryPerimeter=0;" edge="1" parent="WIyWlLk6GJQsqaUBKTNV-1" source="jSNVmiuDcOuy4MH1T7Fy-2" target="jSNVmiuDcOuy4MH1T7Fy-20">
          <mxGeometry relative="1" as="geometry" />
        </mxCell>
        <mxCell id="jSNVmiuDcOuy4MH1T7Fy-40" value="Closing&amp;nbsp;" style="whiteSpace=wrap;html=1;" vertex="1" parent="WIyWlLk6GJQsqaUBKTNV-1">
          <mxGeometry x="90" y="940" width="120" height="60" as="geometry" />
        </mxCell>
      </root>
    </mxGraphModel>
  </diagram>
</mxfile>
